pedal_clip_forces.mot
version=1
nRows=123
nColumns=4
inDegrees=yes
endheader
time	PedalClip_calcn_r_Fx	PedalClip_calcn_r_Fy	PedalClip_calcn_r_Fz
2.27102685	-12.3883943359587	26.5226224918153	0
2.27119675	-12.5016317134107	26.6040179459908	0
2.27148704	-12.6151477992176	26.685884054681	0
2.271873	-12.7289393016913	26.7682179777764	0
2.27192719	-12.8430070829052	26.8510213455181	0
2.27206506	-12.9573575961464	26.9343019782329	0
2.27245814	-13.0719965774571	27.0180678178967	0
2.27262452	-13.1869263064438	27.1023250921592	0
2.27291157	-13.3021465825953	27.1870768094923	0
2.27329169	-13.4176560606246	27.2723249621702	0
2.27334652	-13.5334557435059	27.3580735235378	0
2.27348288	-13.6495515806989	27.4443282411517	0
2.27387479	-13.7659490241297	27.5310932233895	0
2.2740364	-13.8826500068386	27.6183704609099	0
2.27431972	-13.9996534894013	27.7061606910888	0
2.27469469	-14.1169575390365	27.7944620036216	0
2.27475011	-14.2345630002982	27.8832746361149	0
2.2748851	-14.3524752363232	27.972603780204	0
2.27527644	-14.4706986514707	28.0624544279912	0
2.27543365	-14.5892340909795	28.152829806061	0
2.27571375	-14.7080801473335	28.2437307533894	0
2.27608389	-14.8272345360515	28.3351579409713	0
2.27613984	-14.9466976829748	28.4271157731909	0
2.27627353	-15.0664750144803	28.5196125170707	0
2.27666438	-15.1865709132154	28.6126559585575	0
2.27681782	-15.3069866596923	28.7062499961809	0
2.27709508	-15.4277213421021	28.8003946554806	0
2.27746075	-15.54877322651	28.895088664288	0
2.27751715	-15.6701434962531	28.9903331112285	0
2.27764962	-15.7918382020115	29.0861330029401	0
2.27804001	-15.9138628300488	29.182491394171	0
2.2781902	-16.0362196162234	29.2794095486888	0
2.27846488	-16.1589081370477	29.376887368162	0
2.2788265	-16.2819272345425	29.4749224627938	0
2.27888325	-16.4052784290396	29.5735151358775	0
2.27901462	-16.5289679213934	29.6726705637911	0
2.27940447	-16.6530008306295	29.772393929787	0
2.27955185	-16.777379112409	29.8726879065108	0
2.27982406	-16.9021024642362	29.9735521105155	0
2.28018205	-17.0271696915924	30.0749840310001	0
2.28023903	-17.1525821616461	30.1769838340403	0
2.28036941	-17.2783457759012	30.2795570520983	0
2.28075853	-17.4044654112666	30.3827100787559	0
2.28090347	-17.5309427908077	30.4864466393874	0
2.2811732	-17.6577774659868	30.5907670665884	0
2.28152803	-17.7849674894284	30.6956725453724	0
2.28158509	-17.9125128693381	30.801167269549	0
2.28171461	-18.0404184805419	30.9072577578128	0
2.28210264	-18.1686883275021	31.0139507425839	0
2.28224543	-18.2973235227756	31.1212498061192	0
2.28251266	-18.4263224673959	31.2291558690152	0
2.28286477	-18.5556822989281	31.33766577649	0
2.28292175	-18.6854026424182	31.4467779042308	0
2.28305055	-18.8154871174378	31.5564970312419	0
2.28343691	-18.945938494002	31.6668284880421	0
2.28357778	-19.0767568152632	31.7777754258951	0
2.28384251	-19.2079397325397	31.8893376401139	0
2.28419238	-19.3394819604841	32.0015129372076	0
2.28424908	-19.4713797515936	32.114301426075	0
2.2843773	-19.6036338004422	32.2277074283986	0
2.28476121	-19.7362453043069	32.3417364675429	0
2.2849003	-19.8692142165308	32.456392331537	0
2.28516262	-20.002539207393	32.5716763486552	0
2.28551078	-20.1362169035137	32.6875889141028	0
2.28556693	-20.2702444156419	32.8041312698205	0
2.28569475	-20.4046193777541	32.9213054473667	0
2.28607511	-20.5393351113541	33.0391073609075	0
2.28621251	-20.674378586472	33.1575252584677	0
2.28647265	-20.8097306132053	33.2765410674924	0
2.28681966	-20.9453678282477	33.3961302074905	0
2.28687496	-21.0812682913829	33.5162678554279	0
2.28700258	-21.2174144096873	33.6369341155058	0
2.28737791	-21.3537895407344	33.758111110195	0
2.28751356	-21.4903768570027	33.8797823663164	0
2.2877718	-21.6271597883351	34.0019326543191	0
2.28811841	-21.76412235986	34.1245485247044	0
2.2881724	-21.9012509305972	34.2476194122075	0
2.2883001	-22.0385350483218	34.3711379634157	0
2.2886683	-22.1759633393293	34.4950951432421	0
2.28880201	-22.3135215165596	34.619477840638	0
2.28905841	-22.4511923244993	34.7442679603027	0
2.28940552	-22.5889566479996	34.8694412536965	0
2.28945758	-22.7267946088268	34.994973278053	0
2.28958576	-22.8646908732101	35.1208451603014	0
2.28994366	-23.0026342434103	35.2470437667166	0
2.29007498	-23.1406171769583	35.3735605158477	0
2.29032864	-23.278635873332	35.5003905013326	0
2.29067711	-23.4166905329323	35.6275339564719	0
2.29072645	-23.5547865116262	35.7549967364348	0
2.29085559	-23.6929341897188	35.8827897536724	0
2.29119868	-23.8311449285851	36.010923085339	0
2.29132704	-23.9694273449005	36.1394035383959	0
2.29157487	-24.1077852360695	36.2682337163253	0
2.29192445	-24.2462088830966	36.3974050529516	0
2.29197063	-24.3846701548425	36.5268937916385	0
2.29210095	-24.5231320887157	36.6566658378838	0
2.29242503	-24.6615575927553	36.7866836691506	0
2.29255144	-24.7999065859899	36.9169107214914	0
2.29279005	-24.9381487510263	37.0473203789958	0
2.29313901	-25.0762671198692	37.1778981571853	0
2.29318258	-25.2142625032074	37.3086419407218	0
2.2933136	-25.3521579928029	37.4395606931867	0
2.2936191	-25.4900047631399	37.5706693602677	0
2.29373811	-25.6278765520239	37.7019863258857	0
2.29396663	-25.7658641820947	37.8335388185203	0
2.29432718	-25.9040464994884	37.9653600463535	0
2.29436324	-26.0424786405622	38.097486513341	0
2.29449822	-26.1812041321707	38.2299615198161	0
2.29475828	-26.3202611092786	38.3628376335927	0
2.29484231	-26.4596840634729	38.4961744083994	0
2.2950654	-26.599517520396	38.6300355078618	0
2.29538074	-26.7398193312543	38.764489449763	0
2.29543947	-26.880635484088	38.8996085230917	0
2.29555855	-27.0220067841737	39.0354729592826	0
2.29593532	-27.1639762586308	39.1721717578901	0
2.29607154	-27.3065893026611	39.3097972903239	0
2.29630615	-27.4499001385134	39.4484477083249	0
2.29666395	-27.5939658173651	39.588221934923	0
2.29669973	-27.7388387816313	39.7292112246823	0
2.29683386	-27.8845689060644	39.8714971662868	0
2.29709253	-28.031204142187	40.0151485559338	0
2.2971814	-28.1787817810309	40.1602186359204	0
2.29739678	-28.3273339059262	40.3067490328909	0
